<?xml version="1.0"?>
<svg xmlns="http://www.w3.org/2000/svg" height="512px" viewBox="-2 0 512 512" width="512px"><path d="m341.914062 258.296875v-12.449219c0-4.140625-3.359374-7.5-7.5-7.5-4.144531 0-7.5 3.359375-7.5 7.5v12.449219c0 4.144531 3.355469 7.5 7.5 7.5 4.140626 0 7.5-3.355469 7.5-7.5zm0 0" fill="#FFFFFF"/><path d="m180.597656 258.296875v-12.449219c0-4.140625-3.355468-7.5-7.5-7.5-4.140625 0-7.5 3.359375-7.5 7.5v12.449219c0 4.144531 3.359375 7.5 7.5 7.5 4.144532 0 7.5-3.355469 7.5-7.5zm0 0" fill="#FFFFFF"/><path d="m253.753906 273.652344c9.707032 0 19.414063-3.140625 27.515625-9.425782 3.273438-2.535156 3.867188-7.25 1.328125-10.523437-2.539062-3.273437-7.25-3.867187-10.523437-1.328125-10.785157 8.367188-25.851563 8.367188-36.640625 0-3.273438-2.539062-7.984375-1.945312-10.523438 1.328125-2.539062 3.273437-1.941406 7.984375 1.332032 10.523437 8.097656 6.285157 17.804687 9.425782 27.511718 9.425782zm0 0" fill="#FFFFFF"/><path d="m475.921875 381.015625c-8.441406 0-16.378906 3.289063-22.347656 9.257813l-12.574219 12.574218-12.191406-12.1875c-22.371094-44.234375-33.71875-89.527344-33.71875-134.660156s11.347656-90.425781 33.722656-134.660156l12.1875-12.1875 12.574219 12.578125c6.164062 6.160156 14.253906 9.238281 22.347656 9.238281 8.089844 0 16.1875-3.082031 22.347656-9.238281 12.320313-12.324219 12.320313-32.375 0-44.695313l-67.777343-67.777344c-5.972657-5.972656-13.90625-9.257812-22.347657-9.257812-8.441406 0-16.378906 3.285156-22.347656 9.257812-5.96875 5.96875-9.257813 13.902344-9.257813 22.34375 0 8.445313 3.289063 16.378907 9.257813 22.347657l15.027344 15.03125-11.519531 11.515625c-44.511719 22.671875-90.113282 34.171875-135.550782 34.171875-16.953125 0-33.929687-1.605469-50.867187-4.789063.757812-9.835937 8.988281-17.617187 19.015625-17.617187h76.078125c2.195312 0 4.339843.367187 6.378906 1.089843 3.90625 1.382813 8.1875-.660156 9.570313-4.566406 1.382812-3.902344-.660157-8.1875-4.5625-9.570312-3.652344-1.296875-7.480469-1.949219-11.386719-1.949219h-76.078125c-17.214844 0-31.484375 12.832031-33.761719 29.433594-23.488281-5.699219-46.855469-14.445313-69.929687-26.195313l-11.523438-11.523437 15.027344-15.03125c5.96875-5.96875 9.257812-13.90625 9.257812-22.347657 0-8.441406-3.289062-16.378906-9.257812-22.347656s-13.90625-9.253906-22.347656-9.253906c-8.441407 0-16.378907 3.285156-22.347657 9.257812l-67.777343 67.773438c-12.320313 12.324219-12.320313 32.375.003906 44.695312 6.160156 6.160157 14.253906 9.242188 22.34375 9.242188 8.09375 0 16.1875-3.082031 22.347656-9.242188l12.585938-12.582031 12.144531 12.144531c34.480469 68.132813 42.617187 137.71875 24.148437 206.859376-1.070312 4.003906 1.308594 8.113281 5.308594 9.183593 4.003906 1.066407 8.113281-1.308593 9.183594-5.308593 19.164062-71.742188 11.207031-143.820313-23.652344-214.335938l21.792969-21.789062c45.363281 22.410156 91.867187 33.769531 138.308593 33.769531 46.441407 0 92.945313-11.359375 138.3125-33.769531l21.789063 21.789062c-22.414063 45.367188-33.769531 91.871094-33.769531 138.3125s11.355468 92.945312 33.765625 138.3125l-21.789063 21.789062c-45.363281-22.410156-91.871094-33.769531-138.3125-33.769531s-92.945312 11.359375-138.308594 33.769531l-21.792968-21.789062c5.085937-10.296875 9.644531-20.734375 13.574218-31.097656 1.46875-3.875-.476562-8.203125-4.351562-9.671875-3.871094-1.46875-8.203125.480469-9.671875 4.351562-4.148437 10.929688-9.035156 21.957031-14.523437 32.800781l-12.160157 12.160157-12.582031-12.582031c-5.96875-5.96875-13.90625-9.257813-22.347656-9.257813s-16.378906 3.289063-22.347656 9.257813c-12.324219 12.320312-12.324219 32.371093 0 44.695312l67.777343 67.773438c5.96875 5.972656 13.902344 9.257812 22.347657 9.257812 8.441406 0 16.375-3.285156 22.347656-9.257812 12.320312-12.320313 12.320312-32.371094 0-44.691407l-15.011719-15.011719 11.710937-11.640624c44.449219-22.601563 89.976563-34.066407 135.339844-34.066407 45.421875 0 91.011719 11.492188 135.511719 34.152344l11.546875 11.546875-15.015625 15.019531c-12.324219 12.320313-12.324219 32.371094 0 44.691407 5.96875 5.972656 13.90625 9.257812 22.347656 9.257812 8.441407 0 16.375-3.285156 22.347657-9.257812l67.773437-67.773438c12.324219-12.324219 12.324219-32.375 0-44.695312-5.96875-5.96875-13.902344-9.257813-22.34375-9.257813zm-422.183594-303.785156c-6.46875-6.46875-6.472656-16.996094-.007812-23.46875l.019531-.019531c7.621094-7.625 18.363281-5.097657 23.46875.007812 6.476562 6.476562 6.476562 17.007812 0 23.480469-6.472656 6.476562-17.007812 6.476562-23.480469 0zm33.890625-57.367188c3.136719-3.136719 15.214844-8.265625 23.480469 0s3.132813 20.34375-.003906 23.480469l-14.882813 14.882812c-1.296875-5.53125-4.09375-10.777343-8.394531-15.082031-.003906 0-.003906 0-.003906 0-4.300781-4.304687-9.550781-7.101562-15.082031-8.398437zm-44.296875 91.257813c-6.472656 6.472656-17.007812 6.472656-23.480469 0-6.476562-6.476563-6.476562-17.007813 0-23.480469l14.882813-14.886719c1.296875 5.53125 4.09375 10.78125 8.398437 15.085938 4.304688 4.304687 9.550782 7.097656 15.082032 8.394531zm41.027344-5.351563-7.230469-7.230469 18.953125-18.953124 7.230469 7.230468zm345.933594-52.019531c6.46875-6.46875 17-6.472656 23.472656-.003906l.011719.011718c6.46875 6.472657 6.46875 17-.007813 23.472657-6.472656 6.476562-17.003906 6.476562-23.476562 0-6.476563-6.472657-6.476563-17.003907 0-23.480469zm57.367187 57.371094c-6.472656 6.472656-17.007812 6.472656-23.480468 0l-14.882813-14.886719c5.53125-1.296875 10.777344-4.09375 15.082031-8.394531 4.304688-4.304688 7.101563-9.550782 8.398438-15.082032l14.882812 14.882813c6.472656 6.472656 6.472656 17.003906 0 23.480469zm-91.257812-91.257813c9.671875-9.667969 20.34375-3.136719 23.480468 0l14.882813 14.886719c-5.527344 1.296875-10.777344 4.089844-15.082031 8.394531-4.304688 4.300781-7.101563 9.550781-8.398438 15.082031l-14.882812-14.882812c-3.136719-3.136719-9.667969-13.8125 0-23.480469zm7.796875 66.953125 7.230469-7.230468 18.960937 18.960937-7.230469 7.230469zm-326.980469 371.429688c-6.480469 6.859375-17 6.476562-23.476562.007812l-.007813-.011718c-3.132813-3.132813-8.867187-14.601563.003906-23.472657 8.875-8.871093 20.246094-3.238281 23.480469 0 6.136719 6.132813 6.484375 16.621094 0 23.476563zm-57.367188-57.367188c9.84375-9.84375 20.34375-3.136718 23.476563 0l14.886719 14.886719c-5.53125 1.296875-10.777344 4.09375-15.082032 8.394531-4.214843 4.214844-7.085937 9.410156-8.414062 15.070313l-14.871094-14.867188c-6.472656-6.476562-6.472656-17.007812.003906-23.484375zm91.257813 91.257813c-9.148437 9.148437-20.34375 3.136719-23.480469 0l-14.886718-14.886719c5.53125-1.296875 10.78125-4.089844 15.082031-8.394531 4.214843-4.210938 7.085937-9.410157 8.414062-15.070313l14.871094 14.871094c6.472656 6.472656 6.472656 17.007812 0 23.480469zm-33.980469-78.675781 7.230469-7.230469 18.992187 18.992187-7.253906 7.210938zm376.640625 44.785156c-6.472656 6.476562-17.054687 6.421875-23.476562 0-6.421875-6.417969-5.171875-18.308594 0-23.476563 3.238281-3.238281 13.367187-10.113281 23.476562 0 10.117188 10.113281 3.140625 20.34375 0 23.476563zm-49.582031-33.054688 18.972656-18.96875 7.230469 7.230469-18.96875 18.972656zm15.695312 66.945313c-9.207031 9.207031-20.34375 3.136719-23.480468 0-6.472656-6.472657-6.472656-17.007813 0-23.480469l14.871094-14.871094c1.328124 5.660156 4.199218 10.855469 8.410156 15.070313 4.308594 4.304687 9.554687 7.097656 15.085937 8.394531zm67.777344-67.777344-14.871094 14.871094c-1.328124-5.660157-4.195312-10.855469-8.410156-15.070313-4.304687-4.304687-9.554687-7.097656-15.085937-8.394531l14.886719-14.886719c9.230468-9.230468 20.34375-3.136718 23.480468 0 6.472656 6.476563 6.472656 17.007813 0 23.480469zm0 0" fill="#FFFFFF"/></svg>
