<svg height="511pt" viewBox="-2 1 511 511.99948" width="511pt" xmlns="http://www.w3.org/2000/svg"><path d="m327.15625 140.355469h-133.160156v-33.367188c0-15.128906 12.261718-27.394531 27.390625-27.394531h78.375c15.128906 0 27.394531 12.265625 27.394531 27.394531zm0 0" fill="#ff929f"/><path d="m275.1875 79.59375h-53.800781c-15.128907 0-27.390625 12.265625-27.390625 27.394531v33.367188h53.796875v-33.367188c0-15.128906 12.265625-27.394531 27.394531-27.394531zm0 0" fill="#ff737d"/><path d="m79.855469 112-41.5625-40.835938 30.582031-30.582031 41.324219 41.074219-3.417969 26.5625zm0 0" fill="#c6c5ca"/><path d="m112.710938 42.386719-69.824219 69.824219c-9.695313 9.699218-25.417969 9.699218-35.113281 0-9.699219-9.695313-9.699219-25.417969 0-35.117188l69.820312-69.820312c9.699219-9.699219 25.421875-9.699219 35.117188 0 9.695312 9.695312 9.695312 25.417968 0 35.113281zm0 0" fill="#acabb1"/><path d="m85.070312 59.742188c0 13.714843-11.113281 24.832031-24.828124 24.832031-13.714844 0-24.832032-11.117188-24.832032-24.832031 0-13.714844 11.117188-24.832032 24.832032-24.832032 13.714843 0 24.828124 11.117188 24.828124 24.832032zm0 0" fill="#898890"/><path d="m428.542969 112 41.5625-40.835938-30.582031-30.582031-41.324219 41.074219 3.421875 26.5625zm0 0" fill="#c6c5ca"/><path d="m395.6875 42.386719 69.824219 69.824219c9.699219 9.699218 25.417969 9.699218 35.117187 0 9.695313-9.695313 9.695313-25.417969 0-35.117188l-69.824218-69.820312c-9.695313-9.699219-25.417969-9.699219-35.117188 0-9.695312 9.695312-9.695312 25.417968 0 35.113281zm0 0" fill="#acabb1"/><path d="m472.988281 59.742188c0 13.714843-11.117187 24.832031-24.828125 24.832031-13.714844 0-24.832031-11.117188-24.832031-24.832031 0-13.714844 11.117187-24.832032 24.832031-24.832032 13.710938 0 24.828125 11.117188 24.828125 24.832032zm0 0" fill="#898890"/><path d="m79.855469 400-41.5625 40.832031 30.582031 30.582031 41.324219-41.070312-3.417969-26.566406zm0 0" fill="#c6c5ca"/><path d="m112.710938 469.609375-69.824219-69.820313c-9.695313-9.699218-25.417969-9.699218-35.113281 0-9.699219 9.695313-9.699219 25.417969 0 35.113282l69.820312 69.824218c9.699219 9.695313 25.421875 9.695313 35.117188 0 9.695312-9.695312 9.695312-25.417968 0-35.117187zm0 0" fill="#acabb1"/><path d="m85.070312 452.257812c0 13.714844-11.113281 24.832032-24.828124 24.832032-13.714844 0-24.832032-11.117188-24.832032-24.832032 0-13.714843 11.117188-24.832031 24.832032-24.832031 13.714843 0 24.828124 11.117188 24.828124 24.832031zm0 0" fill="#898890"/><path d="m428.542969 400 41.5625 40.832031-30.582031 30.582031-41.324219-41.070312 3.421875-26.566406zm0 0" fill="#c6c5ca"/><path d="m395.6875 469.609375 69.824219-69.820313c9.699219-9.699218 25.417969-9.699218 35.117187 0 9.695313 9.695313 9.695313 25.417969 0 35.113282l-69.824218 69.824218c-9.695313 9.695313-25.417969 9.695313-35.117188 0-9.695312-9.695312-9.695312-25.417968 0-35.117187zm0 0" fill="#acabb1"/><path d="m472.988281 452.257812c0 13.714844-11.117187 24.832032-24.828125 24.832032-13.714844 0-24.832031-11.117188-24.832031-24.832032 0-13.714843 11.117187-24.832031 24.832031-24.832031 13.710938 0 24.828125 11.117188 24.828125 24.832031zm0 0" fill="#898890"/><path d="m398.199219 81.65625c-94.890625 48.628906-193.105469 48.628906-288 0l-30.34375 30.34375c48.628906 94.890625 48.628906 193.109375 0 288l30.34375 30.34375c94.894531-48.628906 193.109375-48.628906 288 0l30.34375-30.34375c-48.628907-94.890625-48.628907-193.109375 0-288zm0 0" fill="#eaeaea"/><path d="m256.292969 161.996094c35.351562-22.09375 57.207031-49.996094 57.207031-49.996094-67.867188 14.050781-136.40625 3.9375-203.296875-30.34375l-30.347656 30.34375c48.632812 94.890625 48.632812 193.109375 0 288l30.347656 30.34375c25.011719-12.820312 50.257813-22.257812 75.613281-28.320312 11.34375-45.125 13.539063-94.089844 12.808594-133.921876-.796875-43.074218 21.136719-83.277343 57.667969-106.105468zm0 0" fill="#d8d7da"/><g fill="#57565c"><path d="m337.292969 266.09375c-4.269531 0-7.726563-3.457031-7.726563-7.726562v-12.824219c0-4.269531 3.457032-7.726563 7.726563-7.726563 4.265625 0 7.726562 3.457032 7.726562 7.726563v12.824219c0 4.269531-3.460937 7.726562-7.726562 7.726562zm0 0"/><path d="m171.109375 266.09375c-4.269531 0-7.726563-3.457031-7.726563-7.726562v-12.824219c0-4.269531 3.457032-7.726563 7.726563-7.726563 4.265625 0 7.726563 3.457032 7.726563 7.726563v12.824219c0 4.269531-3.460938 7.726562-7.726563 7.726562zm0 0"/><path d="m254.199219 274.183594c-10 0-20-3.234375-28.34375-9.707032-3.371094-2.613281-3.984375-7.46875-1.367188-10.839843 2.613281-3.375 7.46875-3.988281 10.835938-1.371094 11.113281 8.621094 26.636719 8.621094 37.75 0 3.367187-2.613281 8.222656-2.003906 10.839843 1.371094 2.613282 3.371093 2 8.222656-1.371093 10.839843-8.34375 6.472657-18.34375 9.707032-28.34375 9.707032zm0 0"/></g></svg>